<?xml version="1.0" encoding="utf-8"?>
<!-- Generator: Adobe Illustrator 15.1.0, SVG Export Plug-In  -->
<!DOCTYPE svg [
	<!ENTITY ns_flows "http://ns.adobe.com/Flows/1.0/">
]>
<svg version="1.2" baseProfile="tiny"
	 xmlns="http://www.w3.org/2000/svg" xmlns:xlink="http://www.w3.org/1999/xlink" xmlns:a="http://ns.adobe.com/AdobeSVGViewerExtensions/3.0/"
	 x="0px" y="0px" width="103px" height="59px" viewBox="588 14 103 59" overflow="visible" xml:space="preserve">
<defs>
</defs>
<path fill="#FFFFFF" d="M627.441,25.657c0.15,0,0.302-0.023,0.445-0.059l5.115,17.392h0.004c0.568,1.94,3.396,3.413,6.795,3.413
	c3.404,0,6.225-1.472,6.797-3.413h0.003l5.113-17.38c0.121,0.026,0.254,0.047,0.39,0.047c0.994,0,1.797-0.802,1.797-1.802
	c0-0.99-0.803-1.796-1.797-1.796c-0.99,0-1.798,0.806-1.798,1.796c0,0.72,0.417,1.334,1.023,1.625l-5.926,12.704l0.95-17.12
	c0.013,0,0.028,0,0.039,0c0.993,0,1.799-0.803,1.799-1.796c0-0.992-0.806-1.799-1.799-1.799c-0.989,0-1.799,0.807-1.799,1.799
	c0,0.822,0.552,1.509,1.298,1.726l-3.941,16.73l-1.903-18.435c0.875-0.13,1.542-0.875,1.542-1.784c0-0.99-0.804-1.797-1.795-1.797
	c-0.997,0-1.8,0.807-1.8,1.797c0,0.91,0.674,1.663,1.549,1.784l-1.896,18.403l-3.936-16.695c0.755-0.213,1.314-0.904,1.314-1.729
	c0-0.992-0.809-1.799-1.797-1.799c-0.998,0-1.803,0.807-1.803,1.799c0,0.994,0.805,1.796,1.803,1.796c0.008,0,0.014,0,0.023,0
	l0.951,17.111l-5.938-12.718c0.578-0.299,0.976-0.901,0.976-1.601c0-0.99-0.804-1.796-1.8-1.796c-0.993,0-1.796,0.806-1.796,1.796
	C625.646,24.855,626.448,25.657,627.441,25.657z M639.771,41.527c3.114,0,5.634,0.794,5.634,1.772c0,0.982-2.52,1.771-5.634,1.771
	c-3.112,0-5.635-0.788-5.635-1.771C634.137,42.321,636.659,41.527,639.771,41.527z"/>
<path fill="#FFFFFF" d="M619.903,53.696c-5.159,0-9.341,4.188-9.341,9.216c0,5.027,4.182,9.215,9.341,9.215
	c5.155,0,9.338-4.188,9.338-9.215C629.241,57.884,625.059,53.696,619.903,53.696z M623.785,68.235
	c-0.289,0.433-0.652,0.817-1.074,1.132c-0.69,0.549-1.479,0.869-2.315,0.901c-0.159,0.017-0.328,0.03-0.492,0.03
	c-0.172,0-0.335-0.013-0.497-0.03c-0.836-0.032-1.621-0.352-2.311-0.901c-0.425-0.315-0.79-0.7-1.077-1.132
	c-0.969-1.34-1.577-3.222-1.577-5.308c0-1.958,0.541-3.739,1.405-5.051c0.483-0.868,1.249-1.556,2.179-1.959
	c0.008-0.002,0.015-0.009,0.023-0.012c0.041-0.018,0.085-0.035,0.134-0.051c0.121-0.053,0.249-0.095,0.376-0.132
	c0.426-0.125,0.877-0.193,1.345-0.193c0.47,0,0.917,0.069,1.341,0.193c0.131,0.038,0.255,0.079,0.38,0.13
	c0.043,0.018,0.089,0.035,0.136,0.053c0.006,0.006,0.012,0.01,0.021,0.012c0.924,0.403,1.695,1.092,2.178,1.959
	c0.869,1.316,1.402,3.096,1.402,5.051C625.361,65.013,624.756,66.895,623.785,68.235z"/>
<path fill="#FFFFFF" d="M647.741,64.832h-1.294v2.596c-0.039,1.554-1.308,2.808-2.873,2.808c-0.006,0-0.012-0.003-0.018-0.003v0.006
	h-3.961h-1.498V55.644h2.501v-1.302h-2.501l0,0h-0.276h-6.245v1.302h2.505v14.595h-2.505v1.298h14.871h1.1h0.104h0.09v-0.004h0.011
	V67.29h-0.011V64.832z"/>
<path fill="#FFFFFF" d="M667.472,54.352h-0.016h-0.086h-4.006h-12.896v1.298h2.456v14.597h-2.456v1.298v0.003h12.896h2.892h1.114
	h0.086h0.016h0.091v-4.242V65.36h-1.307v2.049l0,0c-0.016,1.57-1.298,2.842-2.875,2.842c-0.007,0-0.01,0-0.017,0v0.002h-4.635
	v-0.002h-1.74h-0.051v-7.014v-0.231h1.303c0.015,0,0.022,0,0.032,0H659l0,0c1.164,0.013,2.107,0.958,2.107,2.124
	c0,0.017,0,0.032-0.003,0.047h0.003v0.673l0,0v0.274h1.185V65.95v-2.944v-0.011v-1.056v-0.003v-2.948v-0.06h-1.182v0.836h-0.003
	c0,0.014,0.003,0.029,0.003,0.046c0,1.165-0.943,1.998-2.11,2.007l0,0h-0.759h-0.809h-0.494V55.65h0.051h3.706
	c0.017,0,0.038,0,0.058,0h2.642c1.571,0.009,2.846,1.278,2.861,2.845l0,0v1.767h1.307v-1.665v-4.24v-0.005H667.472z"/>
<path fill="#FFFFFF" d="M689.773,70.301c-1.247-0.03-1.54-0.417-2.504-1.523l-5.693-7.084l3.768-4.496V57.2
	c1.011-1.159,1.284-1.556,2.584-1.576h0.805h0.179v-1.256h-0.179h-3.7h-0.172h-2.714h-0.174v1.256h0.174h1.352v0.003
	c0.004,0,0.004,0,0.004,0c0.329,0,0.592,0.26,0.592,0.586c0,0.127-0.04,0.246-0.109,0.344l-3.337,3.978l-2.623-3.263l-0.547-0.69
	c-0.079-0.101-0.136-0.229-0.136-0.368c0-0.326,0.267-0.586,0.588-0.59h1.495v-1.256h-2.653h-3.877h-2.148v1.256h0.411
	c1.108,0.053,1.426,0.43,2.297,1.426l5.038,6.272l-4.537,5.415v-0.012c-1.014,1.161-1.29,1.554-2.594,1.577h-0.794h-0.266v1.253
	h0.266h4.295h0.269h2.322h0.27v-1.253h-0.27h-1.557v-0.003c0,0,0,0-0.003,0c-0.324,0-0.59-0.261-0.59-0.593
	c0-0.135,0.051-0.263,0.133-0.363l4.028-4.812l3.347,4.171l0.51,0.637c0.079,0.104,0.133,0.229,0.133,0.367
	c0,0.33-0.265,0.593-0.592,0.593c0,0,0,0-0.004,0l0,0h-1.607v1.254h0.015v0.002h9.344v-1.253H689.773z"/>
<path fill="#FFFFFF" d="M607.616,70.218l-1.138-3.305c-0.534-1.47-0.91-2.132-1.74-2.89c-0.549-0.489-1.312-0.722-1.88-0.889
	c2.118-0.335,3.728-2.168,3.728-4.378c0-2.444-1.982-4.434-4.432-4.434c-0.024,0-0.053,0.003-0.083,0.003v-0.003h-6.67h-4.019
	h-2.419v1.292h2.419v14.613h-2.461v1.301h6.443l0,0h2.509v-1.301h-2.473v-7.022h1.918c0.062,0.003,0.118,0.006,0.181,0.01h0.388
	c0.613,0.022,1.145,0.111,1.622,0.249c0.443,0.112,0.916,0.267,1.227,0.467c0.424,0.276,0.875,0.659,1.271,1.337
	c0.104,0.181,0.195,0.362,0.285,0.543c0.729,1.379,1.17,3.284,1.657,5.708h2.954v0.003h2.664v-1.303H607.616z M599.599,61.901
	h-4.188v-6.292h4.186c1.805,0.07,3.242,1.325,3.242,3.145S601.4,61.824,599.599,61.901z"/>
<path fill="#A37E2C" d="M627.441,24.657c0.15,0,0.302-0.023,0.445-0.059l5.115,17.392h0.004c0.568,1.94,3.396,3.413,6.795,3.413
	c3.404,0,6.225-1.472,6.797-3.413h0.003l5.113-17.38c0.121,0.026,0.254,0.047,0.39,0.047c0.994,0,1.797-0.802,1.797-1.802
	c0-0.99-0.803-1.796-1.797-1.796c-0.99,0-1.798,0.806-1.798,1.796c0,0.72,0.417,1.334,1.023,1.625l-5.926,12.704l0.95-17.12
	c0.013,0,0.028,0,0.039,0c0.993,0,1.799-0.803,1.799-1.796c0-0.992-0.806-1.799-1.799-1.799c-0.989,0-1.799,0.807-1.799,1.799
	c0,0.822,0.552,1.509,1.298,1.726l-3.941,16.73l-1.903-18.435c0.875-0.13,1.542-0.875,1.542-1.784c0-0.99-0.804-1.797-1.795-1.797
	c-0.997,0-1.8,0.807-1.8,1.797c0,0.91,0.674,1.663,1.549,1.784l-1.896,18.403l-3.936-16.695c0.755-0.213,1.314-0.904,1.314-1.729
	c0-0.992-0.809-1.799-1.797-1.799c-0.998,0-1.803,0.807-1.803,1.799c0,0.994,0.805,1.796,1.803,1.796c0.008,0,0.014,0,0.023,0
	l0.951,17.111l-5.938-12.718c0.578-0.299,0.976-0.901,0.976-1.601c0-0.99-0.804-1.796-1.8-1.796c-0.993,0-1.796,0.806-1.796,1.796
	C625.646,23.855,626.448,24.657,627.441,24.657z M639.771,40.527c3.114,0,5.634,0.794,5.634,1.772c0,0.982-2.52,1.771-5.634,1.771
	c-3.112,0-5.635-0.788-5.635-1.771C634.137,41.321,636.659,40.527,639.771,40.527z"/>
<path fill="#006039" d="M619.903,52.696c-5.159,0-9.341,4.188-9.341,9.216c0,5.027,4.182,9.215,9.341,9.215
	c5.155,0,9.338-4.188,9.338-9.215C629.241,56.884,625.059,52.696,619.903,52.696z M623.785,67.235
	c-0.289,0.433-0.652,0.817-1.074,1.132c-0.69,0.549-1.479,0.869-2.315,0.901c-0.159,0.017-0.328,0.03-0.492,0.03
	c-0.172,0-0.335-0.013-0.497-0.03c-0.836-0.032-1.621-0.352-2.311-0.901c-0.425-0.315-0.79-0.7-1.077-1.132
	c-0.969-1.34-1.577-3.222-1.577-5.308c0-1.958,0.541-3.739,1.405-5.051c0.483-0.868,1.249-1.556,2.179-1.959
	c0.008-0.002,0.015-0.009,0.023-0.012c0.041-0.018,0.085-0.035,0.134-0.051c0.121-0.053,0.249-0.095,0.376-0.132
	c0.426-0.125,0.877-0.193,1.345-0.193c0.47,0,0.917,0.069,1.341,0.193c0.131,0.038,0.255,0.079,0.38,0.13
	c0.043,0.018,0.089,0.035,0.136,0.053c0.006,0.006,0.012,0.01,0.021,0.012c0.924,0.403,1.695,1.092,2.178,1.959
	c0.869,1.316,1.402,3.096,1.402,5.051C625.361,64.013,624.756,65.895,623.785,67.235z"/>
<path fill="#006039" d="M647.741,63.832h-1.294v2.596c-0.039,1.554-1.308,2.808-2.873,2.808c-0.006,0-0.012-0.003-0.018-0.003v0.006
	h-3.961h-1.498V54.644h2.501v-1.302h-2.501l0,0h-0.276h-6.245v1.302h2.505v14.595h-2.505v1.298h14.871h1.1h0.104h0.09v-0.004h0.011
	V66.29h-0.011V63.832z"/>
<path fill="#006039" d="M667.472,53.352h-0.016h-0.086h-4.006h-12.896v1.298h2.456v14.597h-2.456v1.298v0.003h12.896h2.892h1.114
	h0.086h0.016h0.091v-4.242V64.36h-1.307v2.049l0,0c-0.016,1.57-1.298,2.842-2.875,2.842c-0.007,0-0.01,0-0.017,0v0.002h-4.635
	v-0.002h-1.74h-0.051v-7.014v-0.231h1.303c0.015,0,0.022,0,0.032,0H659l0,0c1.164,0.013,2.107,0.958,2.107,2.124
	c0,0.017,0,0.032-0.003,0.047h0.003v0.673l0,0v0.274h1.185V64.95v-2.944v-0.011v-1.056v-0.003v-2.948v-0.06h-1.182v0.836h-0.003
	c0,0.014,0.003,0.029,0.003,0.046c0,1.165-0.943,1.998-2.11,2.007l0,0h-0.759h-0.809h-0.494V54.65h0.051h3.706
	c0.017,0,0.038,0,0.058,0h2.642c1.571,0.009,2.846,1.278,2.861,2.845l0,0v1.767h1.307v-1.665v-4.24v-0.005H667.472z"/>
<path fill="#006039" d="M689.773,69.301c-1.247-0.03-1.54-0.417-2.504-1.523l-5.693-7.084l3.768-4.496V56.2
	c1.011-1.159,1.284-1.556,2.584-1.576h0.805h0.179v-1.256h-0.179h-3.7h-0.172h-2.714h-0.174v1.256h0.174h1.352v0.003
	c0.004,0,0.004,0,0.004,0c0.329,0,0.592,0.26,0.592,0.586c0,0.127-0.04,0.246-0.109,0.344l-3.337,3.978l-2.623-3.263l-0.547-0.69
	c-0.079-0.101-0.136-0.229-0.136-0.368c0-0.326,0.267-0.586,0.588-0.59h1.495v-1.256h-2.653h-3.877h-2.148v1.256h0.411
	c1.108,0.053,1.426,0.43,2.297,1.426l5.038,6.272l-4.537,5.415v-0.012c-1.014,1.161-1.29,1.554-2.594,1.577h-0.794h-0.266v1.253
	h0.266h4.295h0.269h2.322h0.27v-1.253h-0.27h-1.557v-0.003c0,0,0,0-0.003,0c-0.324,0-0.59-0.261-0.59-0.593
	c0-0.135,0.051-0.263,0.133-0.363l4.028-4.812l3.347,4.171l0.51,0.637c0.079,0.104,0.133,0.229,0.133,0.367
	c0,0.33-0.265,0.593-0.592,0.593c0,0,0,0-0.004,0l0,0h-1.607v1.254h0.015v0.002h9.344v-1.253H689.773z"/>
<path fill="#006039" d="M607.616,69.218l-1.138-3.305c-0.534-1.47-0.91-2.132-1.74-2.89c-0.549-0.489-1.312-0.722-1.88-0.889
	c2.118-0.335,3.728-2.168,3.728-4.378c0-2.444-1.982-4.434-4.432-4.434c-0.024,0-0.053,0.003-0.083,0.003v-0.003h-6.67h-4.019
	h-2.419v1.292h2.419v14.613h-2.461v1.301h6.443l0,0h2.509v-1.301h-2.473v-7.022h1.918c0.062,0.003,0.118,0.006,0.181,0.01h0.388
	c0.613,0.022,1.145,0.111,1.622,0.249c0.443,0.112,0.916,0.267,1.227,0.467c0.424,0.276,0.875,0.659,1.271,1.337
	c0.104,0.181,0.195,0.362,0.285,0.543c0.729,1.379,1.17,3.284,1.657,5.708h2.954v0.003h2.664v-1.303H607.616z M599.599,60.901
	h-4.188v-6.292h4.186c1.805,0.07,3.242,1.325,3.242,3.145S601.4,60.824,599.599,60.901z"/>
<rect id="_x3C_Tranche_x3E__1_" x="588" y="14" fill="none" width="103" height="59"/>
</svg>
